<svg width="32" height="32" fill="none" xmlns="http://www.w3.org/2000/svg"><g clip-path="url('#clip0_975_586')"><g clip-path="url('#clip1_975_586')"><rect width="32" height="32" rx="6" fill="#FFCE27" style="fill:color(display-p3 .9981 .8071 .153);fill-opacity:1"/><path d="M1.11 20.098a.327.327 0 0 1-.223-.082.286.286 0 0 1-.082-.211v-.833c0-.055.015-.137.047-.246a.631.631 0 0 1 .246-.328l1.22-1.197c.625-.477 1.137-.88 1.536-1.208.407-.336.708-.633.903-.89.195-.259.293-.501.293-.728 0-.266-.07-.485-.21-.657-.134-.18-.368-.27-.705-.27-.226 0-.418.051-.574.153a.926.926 0 0 0-.34.375 1.843 1.843 0 0 0-.164.481.33.33 0 0 1-.165.211.475.475 0 0 1-.234.059H1.192a.239.239 0 0 1-.246-.246c.007-.376.086-.727.234-1.056.156-.328.371-.618.645-.868.282-.258.614-.457.997-.598.39-.14.829-.21 1.313-.21.665 0 1.228.105 1.69.316.468.21.824.508 1.066.891.243.375.364.817.364 1.325 0 .383-.086.743-.258 1.08a3.569 3.569 0 0 1-.715.95c-.305.296-.669.605-1.091.925l-1.079 1.091h3.014c.086 0 .156.028.211.082a.268.268 0 0 1 .094.211v1.185a.268.268 0 0 1-.094.21.285.285 0 0 1-.211.083H1.11Zm10.817.117c-.563 0-1.052-.078-1.466-.234a2.91 2.91 0 0 1-1.032-.669 2.902 2.902 0 0 1-.61-.985 4.048 4.048 0 0 1-.246-1.208l-.024-.715v-.821c.008-.281.016-.532.024-.75a3.92 3.92 0 0 1 .246-1.197c.149-.375.36-.7.633-.973.282-.282.626-.5 1.033-.657.414-.156.895-.234 1.442-.234.555 0 1.036.078 1.442.234a2.8 2.8 0 0 1 1.02.657c.282.274.497.598.646.973.148.368.23.766.246 1.196.016.22.023.47.023.751.008.274.008.547 0 .82 0 .267-.007.505-.023.716-.016.43-.098.833-.246 1.208-.141.375-.348.704-.622.985a2.794 2.794 0 0 1-1.02.669c-.407.156-.895.234-1.466.234Zm0-1.7c.407 0 .7-.13.88-.387.187-.266.285-.622.293-1.067.015-.227.023-.465.023-.716.008-.25.008-.5 0-.75 0-.25-.008-.481-.023-.692-.008-.43-.106-.778-.293-1.044-.18-.266-.473-.403-.88-.41-.407.007-.7.144-.88.41-.18.266-.277.614-.293 1.044-.008.21-.015.441-.023.692v.75l.023.716c.016.445.117.801.305 1.067.188.258.477.387.868.387Zm8.557 1.583a.312.312 0 0 1-.21-.082.285.285 0 0 1-.083-.211V18.48h-3.647a.312.312 0 0 1-.211-.082.286.286 0 0 1-.082-.212v-1.114c0-.07.011-.133.035-.187.031-.063.062-.122.094-.176l3.412-4.62a.514.514 0 0 1 .434-.2h1.7c.087 0 .157.027.212.082a.267.267 0 0 1 .094.211v4.55h1.032a.28.28 0 0 1 .223.094.271.271 0 0 1 .082.2v1.16a.268.268 0 0 1-.094.212.271.271 0 0 1-.2.082h-1.043v1.325a.267.267 0 0 1-.094.21.285.285 0 0 1-.211.083h-1.443Zm-2.216-3.284h1.97v-2.767l-1.97 2.767Zm9.612 3.401c-.579 0-1.087-.066-1.525-.2-.43-.132-.785-.316-1.067-.55a2.42 2.42 0 0 1-.633-.821 2.428 2.428 0 0 1-.211-1.009c0-.43.105-.809.317-1.137.218-.329.492-.583.82-.763a1.912 1.912 0 0 1-.633-.668 2.048 2.048 0 0 1-.21-.95c0-.438.112-.833.34-1.184.226-.352.57-.634 1.031-.845.461-.21 1.052-.316 1.771-.316.712 0 1.298.105 1.76.316.46.204.8.481 1.02.833.226.352.34.747.34 1.184 0 .352-.07.669-.212.95-.14.274-.344.5-.61.68.345.173.622.427.833.763.211.336.317.719.317 1.149 0 .47-.13.9-.387 1.29-.25.39-.63.704-1.138.938-.508.227-1.149.34-1.923.34Zm0-1.49c.25 0 .473-.042.669-.128.203-.094.363-.219.48-.375a.962.962 0 0 0 .176-.575.95.95 0 0 0-.176-.586 1.142 1.142 0 0 0-.48-.364 1.645 1.645 0 0 0-.669-.129c-.25 0-.477.043-.68.13a1.141 1.141 0 0 0-.481.363.95.95 0 0 0-.176.586c0 .219.059.41.176.575.117.156.277.281.48.375.204.086.43.129.681.129Zm0-3.576c.219 0 .418-.039.598-.117.18-.086.32-.196.422-.329a.82.82 0 0 0 .153-.492.82.82 0 0 0-.153-.493.916.916 0 0 0-.41-.328 1.515 1.515 0 0 0-.61-.117c-.227 0-.43.039-.61.117a.997.997 0 0 0-.422.328.868.868 0 0 0-.14.493c0 .188.046.352.14.492.102.141.242.25.422.329.18.078.383.117.61.117Z" fill="#fff" style="fill:#fff;fill-opacity:1"/></g></g><defs><clipPath id="clip0_975_586"><path fill="#fff" style="fill:#fff;fill-opacity:1" d="M0 0h32v32H0z"/></clipPath><clipPath id="clip1_975_586"><rect width="32" height="32" rx="6" fill="#fff" style="fill:#fff;fill-opacity:1"/></clipPath></defs></svg>